<mxfile host="app.diagrams.net" modified="2020-12-23T02:26:29.165Z" agent="5.0 (Macintosh; Intel Mac OS X 10_15_7) AppleWebKit/537.36 (KHTML, like Gecko) Chrome/87.0.4280.88 Safari/537.36" etag="9udQH1gmXtzocFwCAZ1X" version="14.0.5" type="github">
  <diagram id="cfIy6KriiPACVw7yWnG_" name="stack">
    <mxGraphModel dx="946" dy="597" grid="1" gridSize="10" guides="1" tooltips="1" connect="1" arrows="1" fold="1" page="1" pageScale="1" pageWidth="827" pageHeight="1169" math="0" shadow="0">
      <root>
        <mxCell id="0" />
        <mxCell id="1" parent="0" />
        <mxCell id="PClsru4kuqwzWmf-LDnt-4" value="Stack" style="text;html=1;strokeColor=none;fillColor=none;align=center;verticalAlign=middle;whiteSpace=wrap;rounded=0;" vertex="1" parent="1">
          <mxGeometry x="20" y="230" width="40" height="20" as="geometry" />
        </mxCell>
        <mxCell id="PClsru4kuqwzWmf-LDnt-9" value="" style="group" vertex="1" connectable="0" parent="1">
          <mxGeometry x="80" y="120" width="160" height="240" as="geometry" />
        </mxCell>
        <mxCell id="PClsru4kuqwzWmf-LDnt-1" value="" style="endArrow=none;html=1;" edge="1" parent="PClsru4kuqwzWmf-LDnt-9">
          <mxGeometry width="50" height="50" relative="1" as="geometry">
            <mxPoint y="240" as="sourcePoint" />
            <mxPoint as="targetPoint" />
          </mxGeometry>
        </mxCell>
        <mxCell id="PClsru4kuqwzWmf-LDnt-2" value="" style="endArrow=none;html=1;" edge="1" parent="PClsru4kuqwzWmf-LDnt-9">
          <mxGeometry width="50" height="50" relative="1" as="geometry">
            <mxPoint x="160" y="240" as="sourcePoint" />
            <mxPoint x="160" as="targetPoint" />
          </mxGeometry>
        </mxCell>
        <mxCell id="PClsru4kuqwzWmf-LDnt-3" value="" style="endArrow=none;html=1;" edge="1" parent="PClsru4kuqwzWmf-LDnt-9">
          <mxGeometry width="50" height="50" relative="1" as="geometry">
            <mxPoint y="240" as="sourcePoint" />
            <mxPoint x="160" y="240" as="targetPoint" />
          </mxGeometry>
        </mxCell>
        <mxCell id="PClsru4kuqwzWmf-LDnt-11" value="" style="group" vertex="1" connectable="0" parent="1">
          <mxGeometry x="320" y="120" width="160" height="240" as="geometry" />
        </mxCell>
        <mxCell id="PClsru4kuqwzWmf-LDnt-12" value="" style="endArrow=none;html=1;" edge="1" parent="PClsru4kuqwzWmf-LDnt-11">
          <mxGeometry width="50" height="50" relative="1" as="geometry">
            <mxPoint y="240" as="sourcePoint" />
            <mxPoint as="targetPoint" />
          </mxGeometry>
        </mxCell>
        <mxCell id="PClsru4kuqwzWmf-LDnt-13" value="" style="endArrow=none;html=1;" edge="1" parent="PClsru4kuqwzWmf-LDnt-11">
          <mxGeometry width="50" height="50" relative="1" as="geometry">
            <mxPoint x="160" y="240" as="sourcePoint" />
            <mxPoint x="160" as="targetPoint" />
          </mxGeometry>
        </mxCell>
        <mxCell id="PClsru4kuqwzWmf-LDnt-14" value="" style="endArrow=none;html=1;" edge="1" parent="PClsru4kuqwzWmf-LDnt-11">
          <mxGeometry width="50" height="50" relative="1" as="geometry">
            <mxPoint y="240" as="sourcePoint" />
            <mxPoint x="160" y="240" as="targetPoint" />
          </mxGeometry>
        </mxCell>
        <mxCell id="PClsru4kuqwzWmf-LDnt-17" value="{" style="text;html=1;strokeColor=none;fillColor=none;align=center;verticalAlign=middle;whiteSpace=wrap;rounded=0;" vertex="1" parent="PClsru4kuqwzWmf-LDnt-11">
          <mxGeometry x="60" y="210" width="40" height="20" as="geometry" />
        </mxCell>
        <mxCell id="PClsru4kuqwzWmf-LDnt-15" value="&lt;font style=&quot;font-size: 16px&quot;&gt;{[]()}&lt;/font&gt;" style="text;html=1;strokeColor=none;fillColor=none;align=center;verticalAlign=middle;whiteSpace=wrap;rounded=0;" vertex="1" parent="1">
          <mxGeometry x="110" y="80" width="100" height="20" as="geometry" />
        </mxCell>
        <mxCell id="PClsru4kuqwzWmf-LDnt-16" value="" style="endArrow=none;html=1;" edge="1" parent="1">
          <mxGeometry width="50" height="50" relative="1" as="geometry">
            <mxPoint x="320" y="320" as="sourcePoint" />
            <mxPoint x="480" y="320" as="targetPoint" />
          </mxGeometry>
        </mxCell>
        <mxCell id="PClsru4kuqwzWmf-LDnt-18" value="" style="group" vertex="1" connectable="0" parent="1">
          <mxGeometry x="560" y="120" width="160" height="240" as="geometry" />
        </mxCell>
        <mxCell id="PClsru4kuqwzWmf-LDnt-19" value="" style="endArrow=none;html=1;" edge="1" parent="PClsru4kuqwzWmf-LDnt-18">
          <mxGeometry width="50" height="50" relative="1" as="geometry">
            <mxPoint y="240" as="sourcePoint" />
            <mxPoint as="targetPoint" />
          </mxGeometry>
        </mxCell>
        <mxCell id="PClsru4kuqwzWmf-LDnt-20" value="" style="endArrow=none;html=1;" edge="1" parent="PClsru4kuqwzWmf-LDnt-18">
          <mxGeometry width="50" height="50" relative="1" as="geometry">
            <mxPoint x="160" y="240" as="sourcePoint" />
            <mxPoint x="160" as="targetPoint" />
          </mxGeometry>
        </mxCell>
        <mxCell id="PClsru4kuqwzWmf-LDnt-21" value="" style="endArrow=none;html=1;" edge="1" parent="PClsru4kuqwzWmf-LDnt-18">
          <mxGeometry width="50" height="50" relative="1" as="geometry">
            <mxPoint y="240" as="sourcePoint" />
            <mxPoint x="160" y="240" as="targetPoint" />
          </mxGeometry>
        </mxCell>
        <mxCell id="PClsru4kuqwzWmf-LDnt-22" value="{" style="text;html=1;strokeColor=none;fillColor=none;align=center;verticalAlign=middle;whiteSpace=wrap;rounded=0;" vertex="1" parent="PClsru4kuqwzWmf-LDnt-18">
          <mxGeometry x="60" y="210" width="40" height="20" as="geometry" />
        </mxCell>
        <mxCell id="PClsru4kuqwzWmf-LDnt-24" value="" style="endArrow=none;html=1;" edge="1" parent="PClsru4kuqwzWmf-LDnt-18">
          <mxGeometry width="50" height="50" relative="1" as="geometry">
            <mxPoint y="160" as="sourcePoint" />
            <mxPoint x="160" y="160" as="targetPoint" />
          </mxGeometry>
        </mxCell>
        <mxCell id="PClsru4kuqwzWmf-LDnt-31" value="[" style="text;html=1;strokeColor=none;fillColor=none;align=center;verticalAlign=middle;whiteSpace=wrap;rounded=0;" vertex="1" parent="PClsru4kuqwzWmf-LDnt-18">
          <mxGeometry x="60" y="170" width="40" height="20" as="geometry" />
        </mxCell>
        <mxCell id="PClsru4kuqwzWmf-LDnt-23" value="" style="endArrow=none;html=1;" edge="1" parent="1">
          <mxGeometry width="50" height="50" relative="1" as="geometry">
            <mxPoint x="560" y="320" as="sourcePoint" />
            <mxPoint x="720" y="320" as="targetPoint" />
          </mxGeometry>
        </mxCell>
        <mxCell id="PClsru4kuqwzWmf-LDnt-32" value="{" style="text;html=1;strokeColor=none;fillColor=none;align=center;verticalAlign=middle;whiteSpace=wrap;rounded=0;" vertex="1" parent="1">
          <mxGeometry x="380" y="80" width="40" height="20" as="geometry" />
        </mxCell>
        <mxCell id="PClsru4kuqwzWmf-LDnt-33" value="[" style="text;html=1;strokeColor=none;fillColor=none;align=center;verticalAlign=middle;whiteSpace=wrap;rounded=0;" vertex="1" parent="1">
          <mxGeometry x="620" y="80" width="40" height="20" as="geometry" />
        </mxCell>
        <mxCell id="PClsru4kuqwzWmf-LDnt-34" value="" style="group" vertex="1" connectable="0" parent="1">
          <mxGeometry x="800" y="120" width="160" height="240" as="geometry" />
        </mxCell>
        <mxCell id="PClsru4kuqwzWmf-LDnt-35" value="" style="endArrow=none;html=1;" edge="1" parent="PClsru4kuqwzWmf-LDnt-34">
          <mxGeometry width="50" height="50" relative="1" as="geometry">
            <mxPoint y="240" as="sourcePoint" />
            <mxPoint as="targetPoint" />
          </mxGeometry>
        </mxCell>
        <mxCell id="PClsru4kuqwzWmf-LDnt-36" value="" style="endArrow=none;html=1;" edge="1" parent="PClsru4kuqwzWmf-LDnt-34">
          <mxGeometry width="50" height="50" relative="1" as="geometry">
            <mxPoint x="160" y="240" as="sourcePoint" />
            <mxPoint x="160" as="targetPoint" />
          </mxGeometry>
        </mxCell>
        <mxCell id="PClsru4kuqwzWmf-LDnt-37" value="" style="endArrow=none;html=1;" edge="1" parent="PClsru4kuqwzWmf-LDnt-34">
          <mxGeometry width="50" height="50" relative="1" as="geometry">
            <mxPoint y="240" as="sourcePoint" />
            <mxPoint x="160" y="240" as="targetPoint" />
          </mxGeometry>
        </mxCell>
        <mxCell id="PClsru4kuqwzWmf-LDnt-38" value="{" style="text;html=1;strokeColor=none;fillColor=none;align=center;verticalAlign=middle;whiteSpace=wrap;rounded=0;" vertex="1" parent="PClsru4kuqwzWmf-LDnt-34">
          <mxGeometry x="60" y="210" width="40" height="20" as="geometry" />
        </mxCell>
        <mxCell id="PClsru4kuqwzWmf-LDnt-41" value="" style="endArrow=none;html=1;" edge="1" parent="1">
          <mxGeometry width="50" height="50" relative="1" as="geometry">
            <mxPoint x="800" y="320" as="sourcePoint" />
            <mxPoint x="960" y="320" as="targetPoint" />
          </mxGeometry>
        </mxCell>
        <mxCell id="PClsru4kuqwzWmf-LDnt-42" value="]" style="text;html=1;strokeColor=none;fillColor=none;align=center;verticalAlign=middle;whiteSpace=wrap;rounded=0;" vertex="1" parent="1">
          <mxGeometry x="860" y="80" width="40" height="20" as="geometry" />
        </mxCell>
        <mxCell id="PClsru4kuqwzWmf-LDnt-44" value="" style="group" vertex="1" connectable="0" parent="1">
          <mxGeometry x="1040" y="120" width="160" height="240" as="geometry" />
        </mxCell>
        <mxCell id="PClsru4kuqwzWmf-LDnt-45" value="" style="endArrow=none;html=1;" edge="1" parent="PClsru4kuqwzWmf-LDnt-44">
          <mxGeometry width="50" height="50" relative="1" as="geometry">
            <mxPoint y="240" as="sourcePoint" />
            <mxPoint as="targetPoint" />
          </mxGeometry>
        </mxCell>
        <mxCell id="PClsru4kuqwzWmf-LDnt-46" value="" style="endArrow=none;html=1;" edge="1" parent="PClsru4kuqwzWmf-LDnt-44">
          <mxGeometry width="50" height="50" relative="1" as="geometry">
            <mxPoint x="160" y="240" as="sourcePoint" />
            <mxPoint x="160" as="targetPoint" />
          </mxGeometry>
        </mxCell>
        <mxCell id="PClsru4kuqwzWmf-LDnt-47" value="" style="endArrow=none;html=1;" edge="1" parent="PClsru4kuqwzWmf-LDnt-44">
          <mxGeometry width="50" height="50" relative="1" as="geometry">
            <mxPoint y="240" as="sourcePoint" />
            <mxPoint x="160" y="240" as="targetPoint" />
          </mxGeometry>
        </mxCell>
        <mxCell id="PClsru4kuqwzWmf-LDnt-48" value="{" style="text;html=1;strokeColor=none;fillColor=none;align=center;verticalAlign=middle;whiteSpace=wrap;rounded=0;" vertex="1" parent="PClsru4kuqwzWmf-LDnt-44">
          <mxGeometry x="60" y="210" width="40" height="20" as="geometry" />
        </mxCell>
        <mxCell id="PClsru4kuqwzWmf-LDnt-51" value="" style="endArrow=none;html=1;" edge="1" parent="PClsru4kuqwzWmf-LDnt-44">
          <mxGeometry width="50" height="50" relative="1" as="geometry">
            <mxPoint y="160" as="sourcePoint" />
            <mxPoint x="160" y="160" as="targetPoint" />
          </mxGeometry>
        </mxCell>
        <mxCell id="PClsru4kuqwzWmf-LDnt-52" value="(" style="text;html=1;strokeColor=none;fillColor=none;align=center;verticalAlign=middle;whiteSpace=wrap;rounded=0;" vertex="1" parent="PClsru4kuqwzWmf-LDnt-44">
          <mxGeometry x="60" y="170" width="40" height="20" as="geometry" />
        </mxCell>
        <mxCell id="PClsru4kuqwzWmf-LDnt-49" value="" style="endArrow=none;html=1;" edge="1" parent="1">
          <mxGeometry width="50" height="50" relative="1" as="geometry">
            <mxPoint x="1040" y="320" as="sourcePoint" />
            <mxPoint x="1200" y="320" as="targetPoint" />
          </mxGeometry>
        </mxCell>
        <mxCell id="PClsru4kuqwzWmf-LDnt-50" value="(" style="text;html=1;strokeColor=none;fillColor=none;align=center;verticalAlign=middle;whiteSpace=wrap;rounded=0;" vertex="1" parent="1">
          <mxGeometry x="1100" y="80" width="40" height="20" as="geometry" />
        </mxCell>
        <mxCell id="PClsru4kuqwzWmf-LDnt-53" value="" style="group" vertex="1" connectable="0" parent="1">
          <mxGeometry x="1280" y="120" width="160" height="240" as="geometry" />
        </mxCell>
        <mxCell id="PClsru4kuqwzWmf-LDnt-54" value="" style="endArrow=none;html=1;" edge="1" parent="PClsru4kuqwzWmf-LDnt-53">
          <mxGeometry width="50" height="50" relative="1" as="geometry">
            <mxPoint y="240" as="sourcePoint" />
            <mxPoint as="targetPoint" />
          </mxGeometry>
        </mxCell>
        <mxCell id="PClsru4kuqwzWmf-LDnt-55" value="" style="endArrow=none;html=1;" edge="1" parent="PClsru4kuqwzWmf-LDnt-53">
          <mxGeometry width="50" height="50" relative="1" as="geometry">
            <mxPoint x="160" y="240" as="sourcePoint" />
            <mxPoint x="160" as="targetPoint" />
          </mxGeometry>
        </mxCell>
        <mxCell id="PClsru4kuqwzWmf-LDnt-56" value="" style="endArrow=none;html=1;" edge="1" parent="PClsru4kuqwzWmf-LDnt-53">
          <mxGeometry width="50" height="50" relative="1" as="geometry">
            <mxPoint y="240" as="sourcePoint" />
            <mxPoint x="160" y="240" as="targetPoint" />
          </mxGeometry>
        </mxCell>
        <mxCell id="PClsru4kuqwzWmf-LDnt-57" value="{" style="text;html=1;strokeColor=none;fillColor=none;align=center;verticalAlign=middle;whiteSpace=wrap;rounded=0;" vertex="1" parent="PClsru4kuqwzWmf-LDnt-53">
          <mxGeometry x="60" y="210" width="40" height="20" as="geometry" />
        </mxCell>
        <mxCell id="PClsru4kuqwzWmf-LDnt-58" value="" style="endArrow=none;html=1;" edge="1" parent="1">
          <mxGeometry width="50" height="50" relative="1" as="geometry">
            <mxPoint x="1280" y="320" as="sourcePoint" />
            <mxPoint x="1440" y="320" as="targetPoint" />
          </mxGeometry>
        </mxCell>
        <mxCell id="PClsru4kuqwzWmf-LDnt-59" value=")" style="text;html=1;strokeColor=none;fillColor=none;align=center;verticalAlign=middle;whiteSpace=wrap;rounded=0;" vertex="1" parent="1">
          <mxGeometry x="1340" y="80" width="40" height="20" as="geometry" />
        </mxCell>
        <mxCell id="PClsru4kuqwzWmf-LDnt-60" value="" style="group" vertex="1" connectable="0" parent="1">
          <mxGeometry x="1520" y="120" width="160" height="240" as="geometry" />
        </mxCell>
        <mxCell id="PClsru4kuqwzWmf-LDnt-61" value="" style="endArrow=none;html=1;" edge="1" parent="PClsru4kuqwzWmf-LDnt-60">
          <mxGeometry width="50" height="50" relative="1" as="geometry">
            <mxPoint y="240" as="sourcePoint" />
            <mxPoint as="targetPoint" />
          </mxGeometry>
        </mxCell>
        <mxCell id="PClsru4kuqwzWmf-LDnt-62" value="" style="endArrow=none;html=1;" edge="1" parent="PClsru4kuqwzWmf-LDnt-60">
          <mxGeometry width="50" height="50" relative="1" as="geometry">
            <mxPoint x="160" y="240" as="sourcePoint" />
            <mxPoint x="160" as="targetPoint" />
          </mxGeometry>
        </mxCell>
        <mxCell id="PClsru4kuqwzWmf-LDnt-63" value="" style="endArrow=none;html=1;" edge="1" parent="PClsru4kuqwzWmf-LDnt-60">
          <mxGeometry width="50" height="50" relative="1" as="geometry">
            <mxPoint y="240" as="sourcePoint" />
            <mxPoint x="160" y="240" as="targetPoint" />
          </mxGeometry>
        </mxCell>
        <mxCell id="PClsru4kuqwzWmf-LDnt-66" value="}" style="text;html=1;strokeColor=none;fillColor=none;align=center;verticalAlign=middle;whiteSpace=wrap;rounded=0;" vertex="1" parent="1">
          <mxGeometry x="1580" y="80" width="40" height="20" as="geometry" />
        </mxCell>
      </root>
    </mxGraphModel>
  </diagram>
</mxfile>
